<svg xmlns="http://www.w3.org/2000/svg" xmlns:xlink="http://www.w3.org/1999/xlink" width="475" height="475" viewBox="0 0 475 475">
  <defs>
    <linearGradient id="linear-gradient" y1="1.057" x2="1.092" y2="0.116" gradientUnits="objectBoundingBox">
      <stop offset="0" stop-color="#166ce6"/>
      <stop offset="1" stop-color="#15c6ee"/>
    </linearGradient>
    <filter id="Прямоугольник_110" x="0" y="0" width="475" height="475" filterUnits="userSpaceOnUse">
      <feOffset input="SourceAlpha"/>
      <feGaussianBlur stdDeviation="25" result="blur"/>
      <feFlood flood-opacity="0.161"/>
      <feComposite operator="in" in2="blur"/>
      <feComposite in="SourceGraphic"/>
    </filter>
    <linearGradient id="linear-gradient-3" x1="0.089" y1="1.081" x2="1.092" y2="0.116" xlink:href="#linear-gradient"/>
    <linearGradient id="linear-gradient-4" x1="0.877" y1="0.188" x2="-0.24" y2="1.397" gradientUnits="objectBoundingBox">
      <stop offset="0" stop-color="#3100ff" stop-opacity="0"/>
      <stop offset="1" stop-color="#0d41a3" stop-opacity="0.455"/>
    </linearGradient>
    <filter id="Прямоугольник_107" x="22.5" y="22.5" width="430" height="430" filterUnits="userSpaceOnUse">
      <feOffset input="SourceAlpha"/>
      <feGaussianBlur stdDeviation="17.5" result="blur-2"/>
      <feFlood flood-opacity="0.161"/>
      <feComposite operator="in" in2="blur-2"/>
      <feComposite in="SourceGraphic"/>
    </filter>
  </defs>
  <g id="Сгруппировать_1" data-name="Сгруппировать 1" transform="translate(-760 -976)">
    <g transform="matrix(1, 0, 0, 1, 760, 976)" filter="url(#Прямоугольник_110)">
      <rect id="Прямоугольник_110-2" data-name="Прямоугольник 110" width="325" height="325" rx="25" transform="translate(75 75)" fill="url(#linear-gradient)"/>
    </g>
    <path id="Пересечение_11" data-name="Пересечение 11" d="M111.488,325a25,25,0,0,1-25-25V155.406c39.311-6.007,88.737-.9,141.234,35.5,60.1,41.671,129.141,23.381,183.766-5.948V300a25,25,0,0,1-25,25Z" transform="translate(748.512 1051)" fill="url(#linear-gradient)"/>
    <path id="Пересечение_12" data-name="Пересечение 12" d="M221.784,325a25,25,0,0,1-25-25V225.137c30.234,19.07,56.582,51.106,136.289,58.286,100.59,9.059,159.859-53.827,188.711-98.1V300a25,25,0,0,1-25,25Z" transform="translate(638.216 1051)" fill="url(#linear-gradient-3)"/>
    <g transform="matrix(1, 0, 0, 1, 760, 976)" filter="url(#Прямоугольник_107)">
      <rect id="Прямоугольник_107-2" data-name="Прямоугольник 107" width="325" height="325" rx="25" transform="translate(75 75)" fill="url(#linear-gradient-4)"/>
    </g>
    <text id="Members_total_profit:" data-name="Members’ total
profit:" transform="translate(879 1128.995)" fill="#fff" font-size="22" font-family="SegoeUI-Bold, Segoe UI" font-weight="700"><tspan x="0" y="0">Members</tspan><tspan y="0" font-family="Arial-BoldMT, Arial">’</tspan><tspan y="0" xml:space="preserve"> total</tspan><tspan x="0" y="30">profit:</tspan></text>
    <text id="_500_000_" data-name="$ 500,000+ " transform="translate(879 1252.5)" fill="#fff" font-size="45" font-family="Arial-BoldMT, Arial" font-weight="700"><tspan x="0" y="0">$ 500,000+ </tspan></text>
  </g>
</svg>
