<svg xmlns="http://www.w3.org/2000/svg" xmlns:xlink="http://www.w3.org/1999/xlink" width="3006.26" height="2086.068" viewBox="0 0 3006.26 2086.068"><defs><filter id="a" x="0" y="1210.428" width="1770.279" height="790.827" filterUnits="userSpaceOnUse"><feOffset input="SourceAlpha"/><feGaussianBlur stdDeviation="25" result="b"/><feFlood flood-opacity="0.161"/><feComposite operator="in" in2="b"/><feComposite in="SourceGraphic"/></filter><filter id="c" x="1440.279" y="198.281" width="1479.47" height="950.959" filterUnits="userSpaceOnUse"><feOffset input="SourceAlpha"/><feGaussianBlur stdDeviation="25" result="d"/><feFlood flood-opacity="0.161"/><feComposite operator="in" in2="d"/><feComposite in="SourceGraphic"/></filter><filter id="e" x="406.799" y="22.5" width="2576.961" height="1975.843" filterUnits="userSpaceOnUse"><feOffset input="SourceAlpha"/><feGaussianBlur stdDeviation="17.5" result="f"/><feFlood flood-opacity="0.161"/><feComposite operator="in" in2="f"/><feComposite in="SourceGraphic"/></filter><linearGradient id="g" x1="0.644" y1="0.446" x2="0.1" y2="0.984" gradientUnits="objectBoundingBox"><stop offset="0" stop-color="#15c6ee"/><stop offset="1" stop-color="#185cee"/></linearGradient><filter id="h" x="384.299" y="0" width="2621.961" height="2020.843" filterUnits="userSpaceOnUse"><feOffset input="SourceAlpha"/><feGaussianBlur stdDeviation="25" result="i"/><feFlood flood-opacity="0.161"/><feComposite operator="in" in2="i"/><feComposite in="SourceGraphic"/></filter><linearGradient id="j" x1="0.898" y1="-0.064" x2="0.098" y2="1.044" xlink:href="#g"/><filter id="k" x="2482.952" y="643.171" width="269.998" height="662.026" filterUnits="userSpaceOnUse"><feOffset input="SourceAlpha"/><feGaussianBlur stdDeviation="10" result="l"/><feFlood flood-opacity="0.161" result="m"/><feComposite operator="out" in="SourceGraphic" in2="l"/><feComposite operator="in" in="m"/><feComposite operator="in" in2="SourceGraphic"/></filter><filter id="n" x="886.279" y="221.068" width="259" height="259" filterUnits="userSpaceOnUse"><feOffset input="SourceAlpha"/><feGaussianBlur stdDeviation="25" result="o"/><feFlood flood-opacity="0.161"/><feComposite operator="in" in2="o"/><feComposite in="SourceGraphic"/></filter><filter id="p" x="1024.279" y="160.068" width="213" height="211" filterUnits="userSpaceOnUse"><feOffset input="SourceAlpha"/><feGaussianBlur stdDeviation="25" result="q"/><feFlood flood-opacity="0.161"/><feComposite operator="in" in2="q"/><feComposite in="SourceGraphic"/></filter><linearGradient id="r" x1="0.419" y1="0.558" x2="-0.151" y2="1.385" gradientUnits="objectBoundingBox"><stop offset="0" stop-color="#15c6ee" stop-opacity="0.506"/><stop offset="1" stop-color="#0a00ff" stop-opacity="0.765"/></linearGradient><filter id="s" x="2140.279" y="1757.068" width="265" height="265" filterUnits="userSpaceOnUse"><feOffset input="SourceAlpha"/><feGaussianBlur stdDeviation="25" result="t"/><feFlood flood-opacity="0.161"/><feComposite operator="in" in2="t"/><feComposite in="SourceGraphic"/></filter><filter id="u" x="2050.279" y="1872.068" width="215" height="214" filterUnits="userSpaceOnUse"><feOffset input="SourceAlpha"/><feGaussianBlur stdDeviation="25" result="v"/><feFlood flood-opacity="0.161"/><feComposite operator="in" in2="v"/><feComposite in="SourceGraphic"/></filter><filter id="w"><feOffset input="SourceAlpha"/><feGaussianBlur stdDeviation="10" result="x"/><feFlood flood-opacity="0.161" result="y"/><feComposite operator="out" in="SourceGraphic" in2="x"/><feComposite operator="in" in="y"/><feComposite operator="in" in2="SourceGraphic"/></filter><filter id="z"><feOffset input="SourceAlpha"/><feGaussianBlur stdDeviation="10" result="aa"/><feFlood flood-opacity="0.161" result="ab"/><feComposite operator="out" in="SourceGraphic" in2="aa"/><feComposite operator="in" in="ab"/><feComposite operator="in" in2="SourceGraphic"/></filter></defs><g transform="translate(-3488.721 -301.932)"><g transform="matrix(1, 0, 0, 1, 3488.72, 301.93)" filter="url(#a)"><path d="M-579.8,2228.44s439.1-342.126,666.427,63.488,499.07,223.044,608.852,168.316,345-168.316,345-168.316-413.61-332.863-442.654-335.5-810.319-48.5-810.319-48.5Z" transform="translate(654.8 -622.5)" fill="#fff"/></g><g transform="matrix(1, 0, 0, 1, 3488.72, 301.93)" filter="url(#c)"><path d="M2297.468,1121.964s-172.393-353.989-527.74-274.672-236.77,208.571-703.1,274.672,872.337,514.7,872.337,514.7Z" transform="translate(547.28 -562.43)" fill="#fff"/></g><g transform="matrix(1, 0, 0, 1, 3488.72, 301.93)" filter="url(#e)"><path d="M2205.078,768.606c-113.171-9.54-276.777-64.2-391.622,111.691s-314.57,267.39-523.981,248.258S877.446,1042.51,692,1185.492,109.279,1406.578-25.937,1068.214-236.153,804.852-236.153,804.852l38.162,1590.513S-184,2495.911-50.127,2528.714s399.807-110.923,602.127,0,608.189,162.488,863.178-58.362,628.022-78.914,717.419,81.811-50.186-551.513-50.186-551.513S2318.25,778.146,2205.078,768.606Z" transform="translate(695.45 -678.12)" fill="#15c6ee"/></g><g transform="matrix(1, 0, 0, 1, 3488.72, 301.93)" filter="url(#h)"><path d="M2205.078,768.606c-113.171-9.54-276.777-64.2-391.622,111.691s-314.57,267.39-523.981,248.258S877.446,1042.51,692,1185.492,109.279,1406.578-25.937,1068.214-236.153,804.852-236.153,804.852l38.162,1590.513S-184,2495.911-50.127,2528.714s399.807-110.923,602.127,0,608.189,162.488,863.178-58.362,628.022-78.914,717.419,81.811-50.186-551.513-50.186-551.513S2318.25,778.146,2205.078,768.606Z" transform="translate(695.45 -678.12)" fill="url(#g)"/></g><path d="M833.976,2231.6c-119.489-65.511-261.167-42.2-384.724-18.889-85.652,16.158-162.6,32.318-217.4,18.889-133.871-32.8-147.865-133.349-147.865-133.349L66.436,1366.878l152.826-31.152s685.347,194.148,1086.195,0c372.541-180.437,692.266-259.645,1000.972-132.332l-5.561,657.627s30.889,165.349,54.3,322.9c-141.22-124.505-441.979-197.8-658.013-10.685-128.818,111.571-296.094,153.617-456.228,153.608C1084.081,2326.835,934.087,2286.482,833.976,2231.6Z" transform="translate(3902.197 -76.068)" opacity="0.35" fill="url(#j)"/><g data-type="innerShadowGroup"><path d="M1986.491,1144.462s-277.351,118.41-255.666,210.758,121.689,53.984,110.946,265.895,157.844,184.181,157.844,184.181Z" transform="translate(4242.055 -199.36)" fill="#fff"/><g transform="matrix(1, 0, 0, 1, 3488.72, 301.93)" filter="url(#k)"><path d="M1986.491,1144.462s-277.351,118.41-255.666,210.758,121.689,53.984,110.946,265.895,157.844,184.181,157.844,184.181Z" transform="translate(753.33 -501.29)" fill="#fff"/></g></g><g transform="matrix(1, 0, 0, 1, 3488.72, 301.93)" filter="url(#n)"><circle cx="54.5" cy="54.5" r="54.5" transform="translate(961.28 296.07)" fill="#13b8e6"/></g><g transform="matrix(1, 0, 0, 1, 3488.72, 301.93)" filter="url(#p)"><ellipse cx="31.5" cy="30.5" rx="31.5" ry="30.5" transform="translate(1099.28 235.07)" fill="#13b8e6"/></g><path d="M1348.972,2231.6c-119.489-65.511-261.167-42.2-384.724-18.889-85.651,16.158-162.6,32.318-217.4,18.889-133.871-32.8-147.865-133.349-147.865-133.349l-20.334-847.48c172.853,57.284,379.3,177.607,536.776,428.368,329.967,525.448,1370.893,331.5,1370.893,331.5s254.833-63.113,441.638-35.319c29.368,181.248,52.317,370.886,1.617,279.733-89.4-160.725-462.43-302.661-717.42-81.811-128.818,111.571-296.094,153.617-456.228,153.608C1599.078,2326.835,1449.083,2286.482,1348.972,2231.6Z" transform="translate(3387.2 -79.068)" opacity="0.35" fill="url(#r)"/><g transform="matrix(1, 0, 0, 1, 3488.72, 301.93)" filter="url(#s)"><circle cx="57.5" cy="57.5" r="57.5" transform="translate(2215.28 1832.07)" fill="#16a5ee"/></g><g transform="matrix(1, 0, 0, 1, 3488.72, 301.93)" filter="url(#u)"><ellipse cx="32.5" cy="32" rx="32.5" ry="32" transform="translate(2125.28 1947.07)" fill="#16a5ee"/></g><g data-type="innerShadowGroup"><circle cx="61" cy="61" r="61" transform="translate(4157.671 1523)" fill="#fff"/><g transform="matrix(1, 0, 0, 1, 3488.72, 301.93)" filter="url(#w)"><circle cx="61" cy="61" r="61" transform="translate(668.95 1221.07)" fill="#fff"/></g></g><g data-type="innerShadowGroup"><ellipse cx="19.5" cy="19" rx="19.5" ry="19" transform="translate(4279.671 1485)" fill="#fff"/><g transform="matrix(1, 0, 0, 1, 3488.72, 301.93)" filter="url(#z)"><ellipse cx="19.5" cy="19" rx="19.5" ry="19" transform="translate(790.95 1183.07)" fill="#fff"/></g></g></g></svg>