<svg xmlns="http://www.w3.org/2000/svg" xmlns:xlink="http://www.w3.org/1999/xlink" width="545" height="430.19" viewBox="0 0 545 430.19"><defs><filter id="a" x="0" y="0" width="545" height="430.19" filterUnits="userSpaceOnUse"><feOffset input="SourceAlpha"/><feGaussianBlur stdDeviation="25" result="b"/><feFlood flood-opacity="0.161"/><feComposite operator="in" in2="b"/><feComposite in="SourceGraphic"/></filter><filter id="c" x="0" y="82.188" width="545" height="348.002" filterUnits="userSpaceOnUse"><feOffset input="SourceAlpha"/><feGaussianBlur stdDeviation="25" result="d"/><feFlood flood-opacity="0.161"/><feComposite operator="in" in2="d"/><feComposite in="SourceGraphic"/></filter></defs><g transform="translate(-197 -4401.501)"><g transform="matrix(1, 0, 0, 1, 197, 4401.5)" filter="url(#a)"><path d="M110.776,983a25,25,0,0,1-25-25V714.235c40.892-14.4,97.785-18.6,173.617,7.825,121.456,42.323,188.91,20.138,221.383-.775V958a25,25,0,0,1-25,25Z" transform="translate(-10.78 -627.81)" fill="#fff"/></g><g transform="matrix(1, 0, 0, 1, 197, 4401.5)" filter="url(#c)"><path d="M133.532,983a25,25,0,0,1-25-25V799.915c49.934-17.615,113.917-24.255,185.158,6.272,93.486,40.058,165.041,35.172,209.842,23.161V958a25,25,0,0,1-25,25Z" transform="translate(-33.53 -627.81)" fill="#fff"/></g></g></svg>