<svg xmlns="http://www.w3.org/2000/svg" width="133.618" height="152.455" viewBox="0 0 133.618 152.455"><path d="M2310.052,140.55c-11.791-2.273-23.925-4.639-36.071-6.944-15.329-2.91-30.638-5.92-46.015-8.549-4.149-.708-5.088-1.95-4.5-6.25,3.568-25.96,6.968-51.951,9.906-77.989.869-7.707,3.621-12.713,11.629-13.7,5.92-.731,9.052-3.578,10.517-9.69,1.71-7.127,5.512-13.545,9.955-19.512,12.542-16.847,31.718-9.406,41.566,2.858,2.223,2.768,2.67,7.4,8.089,5.03,1.763-.774,3.408.452,4.536,1.964,4.159,5.569,9.649,8.409,16.648,8.14,4.011-.153,4.767,2.537,5.22,5.686q7.494,52,15.114,103.985c.385,2.6.859,4.8-2.312,5.494C2339.707,134.254,2325.056,137.346,2310.052,140.55Zm-44.771-23.124c9.993.041,17.221-4.693,20.722-13.568,3.956-10.033,2-19.694-5.681-26.729-3.257-2.982-6.957-5.475-10.3-8.374-2.039-1.769-3.84-3.972-2.472-6.94,1.156-2.51,3.092-4.373,6.042-4.6,3.532-.266,7.093-.525,10.519.724,1.384.5,3.419,1.5,4.009.119,2.069-4.82,5.03-9.923,4.851-14.814-.122-3.36-6.067-3.252-9.745-3.5a29.407,29.407,0,0,0-7.05.36c-12,2.14-20.627,8.36-24.171,20.489-3.3,11.273,1.327,19.448,10.2,25.98a20.984,20.984,0,0,1,3.157,3.094c2.6,2.947,3.533,6.3,1.107,9.658-2.3,3.181-5.733,2.581-8.863,1.5a25.293,25.293,0,0,1-6.278-3.208c-3.171-2.246-4.118-1.134-5.528,2.125-3.087,7.134-1.507,11.711,5.84,14.477C2256.077,115.9,2260.4,117.769,2265.281,117.426Zm20.9-123.761c-13.1-.018-24.555,13.316-25.073,28.62,3.895-2.218,9.792-.351,11.179-6.74A35.914,35.914,0,0,1,2286.18-6.335ZM2277.7,16.388c16.962-3.731,17.831-5.077,12.043-17.406C2283.177,2.708,2279.944,8.694,2277.7,16.388Zm19.089-18.594c.394,4.744.706,8.5,1.091,13.109,2.278-1.716,6.348-.151,6.323-3.454C2304.175,3.453,2301.92-.211,2296.791-2.206Z" transform="translate(-2223.308 11.904)" fill="#15c6ee"/></svg>