<svg xmlns="http://www.w3.org/2000/svg" width="157.992" height="158" viewBox="0 0 157.992 158"><path d="M2210.149-746.618h-28.7c0-.038.006-.075.006-.113q0-22.828.014-45.655c0-.485-.2-.484-.557-.484q-14.294.011-28.589-.006c-.486,0-.615.1-.614.6.021,6.027.012,12.054.014,18.081q0,13.787.006,27.574H2123.25V-866.3a4.267,4.267,0,0,0,.209-1.568,47.212,47.212,0,0,1,2.168-10.668c2.808-8.479,7.776-15.32,15.431-20.053a41.068,41.068,0,0,1,21.96-6q58.788-.071,117.576-.032c.488,0,.648.087.647.622q-.031,10.99,0,21.98c0,.565-.127.7-.7.7q-49.55-.024-99.1-.011c-2.126,0-4.252-.036-6.378.1a42.167,42.167,0,0,0-9.372,1.482,17.675,17.675,0,0,0-8.295,4.866,19.947,19.947,0,0,0-4.547,9.881,65.936,65.936,0,0,0-1.109,12.893c-.056,11.885-.02,23.769-.037,35.654,0,.466.1.581.576.58q14.294-.024,28.589,0c.531,0,.591-.167.589-.625-.016-4.709-.006-9.418-.011-14.126a34.271,34.271,0,0,1,1.027-8.645c2.122-8.216,6.926-14.24,14.688-17.8a36.3,36.3,0,0,1,15.327-3.044q34.069-.019,68.138-.018c.5,0,.608.119.606.61q-.027,10.877,0,21.754c0,.5-.11.639-.629.639q-26.1-.023-52.207-.011c-1.994,0-3.988-.022-5.982.079a26.466,26.466,0,0,0-5.784.826,7.711,7.711,0,0,0-5.882,5.683,19.417,19.417,0,0,0-.607,4.793c-.026,3.05,0,6.1-.039,9.152-.006.57.116.733.715.732q34.917-.026,69.834-.026c.468,0,.582.107.58.578q-.025,10.905,0,21.811c0,.567-.161.657-.684.656q-34.889-.021-69.777-.025c-.538,0-.673.113-.672.664q.027,22.488.015,44.977C2210.124-747.031,2210.14-746.825,2210.149-746.618Z" transform="translate(-2123.25 904.618)" fill="#15c6ee"/></svg>