<svg xmlns="http://www.w3.org/2000/svg" width="205" height="55.498" viewBox="0 0 205 55.498"><g transform="translate(1051.629 423.439)"><path d="M-1051.629-420.489c8.1,0,16.2-.037,24.3.03a18.7,18.7,0,0,1,10.6,3.329c6.935,4.743,7.369,17.562-1.908,21.615a3.3,3.3,0,0,0-.333.191c-.011.211.158.2.254.23,8.5,2.94,10.672,10.927,8.4,17.789-1.879,5.683-6.066,8.769-11.763,10.041a26.318,26.318,0,0,1-5.753.593q-11.9,0-23.8.025Zm17.47,46.158v-.068c2.767,0,5.536.069,8.3-.023a8.321,8.321,0,0,0,5.358-2.145c3.475-3.073,3.661-11.54-3.332-13.763a12.9,12.9,0,0,0-3.929-.636c-4.835,0-9.671.015-14.506-.015-.71,0-.966.115-.96.9q.062,7.427,0,14.854c-.007.793.258.917.965.907C-1039.562-374.354-1036.861-374.331-1034.159-374.331Zm-.6-38.6v-.023q-3.849,0-7.7,0c-.409,0-.767-.065-.763.577q.036,6.824,0,13.649c0,.494.167.61.631.608,4.932-.021,9.867.086,14.795-.062,5.309-.16,8.414-4.189,7.4-9.315a6.809,6.809,0,0,0-6.768-5.413C-1029.691-413.007-1032.226-412.932-1034.759-412.932Z" transform="translate(0 -2.352)" fill="#15c6ee"/><path d="M-124.275-423.439a5.318,5.318,0,0,0,1.566.464,11,11,0,0,1,7.2,13.029,10.893,10.893,0,0,1-12.151,8.189,10.958,10.958,0,0,1-9.186-11.7,10.953,10.953,0,0,1,7.818-9.6c.262-.079.618-.024.753-.375Zm-1.818,20.02a8.77,8.77,0,0,0,8.849-9.07c.026-5.3-3.7-9.216-8.777-9.224a8.783,8.783,0,0,0-8.818,9.114A8.775,8.775,0,0,0-126.093-403.419Z" transform="translate(-731.436 0)" fill="#15c6ee"/><path d="M-441.929-329.682c-4.5,0-9,.026-13.5-.021-.913-.01-1.023.268-.858,1.068a18.3,18.3,0,0,0,1.731,5.167c3.489,6.395,10.9,6.461,15.076,4.135a7.666,7.666,0,0,0,3.634-4.454.789.789,0,0,1,.9-.665q3.15.046,6.3,0c.611-.008.711.145.554.737-1.786,6.761-6.351,10.519-13.023,11.984a20.768,20.768,0,0,1-9.22-.1c-7.1-1.644-11.111-6.413-13.109-13.118a24.245,24.245,0,0,1,.588-16.4c2.507-6.2,7.4-9.59,13.825-10.812,5.466-1.039,10.565-.051,14.9,3.612,3.286,2.773,4.957,6.517,5.942,10.595a32.159,32.159,0,0,1,.863,7.4c0,.707-.211.882-.9.878C-432.793-329.7-437.361-329.682-441.929-329.682Zm-4.122-6.076h8.395c2.14,0,2.14,0,1.712-2.136-1.261-6.28-6.727-9.569-12.82-7.715a11.023,11.023,0,0,0-7.415,9.287c-.046.694.355.561.734.562Q-450.748-335.755-446.051-335.758Z" transform="translate(-469.399 -56.688)" fill="#15c6ee"/><path d="M-798.924-329.523c-4.534,0-9.068.015-13.6-.015-.7,0-.883.111-.753.86a15.633,15.633,0,0,0,2.55,6.626c3.84,5.347,11.057,5,14.7,2.621a7.733,7.733,0,0,0,3.208-4.193.787.787,0,0,1,.9-.667c2.067.028,4.135.044,6.2-.005.76-.018.811.234.639.866-1.7,6.266-5.865,10.014-12.054,11.646a21.054,21.054,0,0,1-10.872-.044,16.412,16.412,0,0,1-11.121-9.533,25.229,25.229,0,0,1-1.419-17.781c2.084-7.449,8.067-12.316,16.345-13.1,8.007-.76,14.291,2.9,17.412,9.687a26.879,26.879,0,0,1,1.97,6.348,38.631,38.631,0,0,1,.53,5.647c.029.793-.155,1.072-1.029,1.063C-789.855-329.549-794.39-329.523-798.924-329.523Zm-3.992-6.076h8.889c1.428,0,1.428,0,1.233-1.426-.918-6.7-6.763-10.462-13.1-8.368-4.2,1.387-6.229,4.584-7.169,8.695-.23,1,.058,1.131.957,1.118C-809.042-335.628-805.978-335.6-802.916-335.6Z" transform="translate(-183.978 -56.848)" fill="#15c6ee"/><path d="M-264.8-384.07c0-5.117-.02-10.235.021-15.352.006-.8-.226-.995-.99-.96-1.364.062-2.734,0-4.1.028-.548.013-.766-.13-.754-.719.035-1.727.032-3.456,0-5.183-.01-.544.192-.671.7-.662,1.467.027,2.935-.023,4.4.025.62.02.781-.16.78-.772,0-1.926-.113-3.855.068-5.778a8.52,8.52,0,0,1,8.278-8.18c2.257-.162,4.533-.053,6.8-.084.428-.006.58.132.575.569-.019,1.828-.022,3.655,0,5.483.006.481-.149.634-.626.623-1.2-.027-2.4-.02-3.6-.006-2.454.029-3.592,1.183-3.6,3.626,0,1.263.032,2.527-.015,3.788-.022.6.123.795.761.781,2.067-.044,4.135.014,6.2-.033.715-.016.9.209.881.9q-.073,2.34,0,4.684c.021.68-.154.921-.874.9-2-.047-4,.024-6-.037-.8-.024-.973.213-.971.981.026,10.2,0,20.4.042,30.6,0,.982-.26,1.223-1.213,1.184-1.931-.079-3.868-.06-5.8-.005-.763.022-.947-.215-.942-.953.031-5.15.017-10.3.017-15.452Z" transform="translate(-624.494 -1.378)" fill="#15c6ee"/><path d="M-606.4-394.128c0-8.608.009-17.215-.016-25.822,0-.754.15-1.023.968-1,2,.065,4,.06,6,0,.811-.023,1.073.17,1.061,1.026-.051,3.688-.022,7.377-.022,11.066q0,20.339.02,40.678c0,.863-.182,1.142-1.087,1.108-2-.074-4-.057-6-.005-.746.019-.945-.179-.943-.935C-606.392-376.714-606.4-385.421-606.4-394.128Z" transform="translate(-355.991 -1.991)" fill="#15c6ee"/><path d="M-534.024-328.251c0-6.177.014-12.355-.018-18.532,0-.786.2-1.016,1-.993,2,.059,4,.047,6,0,.7-.015.974.1.972.9q-.043,18.731-.005,37.462c0,.651-.165.856-.827.844-2.065-.038-4.133-.051-6.2,0-.773.021-.937-.229-.933-.958C-534.012-315.764-534.024-322.007-534.024-328.251Z" transform="translate(-413.866 -60.5)" fill="#15c6ee"/><path d="M-532.465-412.724a4.555,4.555,0,0,1-4.558-4.554,4.569,4.569,0,0,1,4.607-4.511,4.521,4.521,0,0,1,4.536,4.56A4.515,4.515,0,0,1-532.465-412.724Z" transform="translate(-411.482 -1.319)" fill="#15c6ee"/><path d="M-97.309-393.148a2.717,2.717,0,0,1,1.454,2.433,5.593,5.593,0,0,0,.259,2.159c.657,1.323-.231,1.055-.925,1.056-1.573,0-1.594-.017-1.746-1.559-.007-.066-.013-.132-.014-.2-.027-3.066-1.159-2.884-3.461-2.891-.451,0-.561.184-.553.6.02,1.129-.016,2.259.017,3.387.015.52-.152.668-.678.682-1.939.051-1.938.073-1.938-1.813,0-3.088.018-6.177-.015-9.265-.007-.645.153-.869.826-.85,1.632.046,3.266-.014,4.9.022,2.447.054,3.812,1.4,3.7,3.591A3.078,3.078,0,0,1-97.309-393.148Zm-3.328-1.108a11.589,11.589,0,0,0,1.192-.007,1.332,1.332,0,0,0,1.352-1.414,1.271,1.271,0,0,0-1.34-1.4c-.561-.043-1.136.045-1.688-.036-1-.147-1.215.257-1.17,1.191C-102.211-394.25-102.269-394.247-100.637-394.256Z" transform="translate(-757.003 -19.212)" fill="#15c6ee"/></g></svg>