<svg xmlns="http://www.w3.org/2000/svg" width="155.282" height="119.769" viewBox="0 0 155.282 119.769"><g transform="translate(-2938.364 503.138)"><path d="M3086-383.37c-1.656-.692-3.394-1.14-5.1-1.684q-9.755-3.118-19.528-6.183c-.331-.1-.542-.243-.462-.63a1.291,1.291,0,0,0,0-.261q0-55.172,0-110.345c0-.383-.174-.784.589-.634,5.025.99,9.989,2.23,14.923,3.591,7.249,2,14.464,4.111,21.544,6.655a59.486,59.486,0,0,1,13.625,6.695,27.632,27.632,0,0,1,11.9,18.358,56.718,56.718,0,0,1,.764,15.468,25.385,25.385,0,0,1-3.427,11.369,14.687,14.687,0,0,1-12.82,7.438,25.344,25.344,0,0,1-11.422-2.734.447.447,0,0,1-.321-.491c.012-.152,0-.3,0-.457q0-18.1,0-36.193a19.111,19.111,0,0,0-.6-5.556,6.064,6.064,0,0,0-4.634-4.548,3.061,3.061,0,0,0-3.323,1.094,7.767,7.767,0,0,0-1.45,4.516c-.033.477-.013.958-.013,1.437q0,46.385,0,92.771c0,.108.007.217.012.325Z" transform="translate(-64.508)" fill="#15c6ee"/><path d="M2938.364-336.688c.725-2.788,2.863-4.283,5.154-5.644a68.576,68.576,0,0,1,12.288-5.449q17.56-6.222,35.107-12.477c.478-.17.644-.2.641.408q-.036,6.761,0,13.522a.682.682,0,0,1-.553.773q-12.917,4.607-25.823,9.249a8.524,8.524,0,0,0-2.941,1.631c-1.133,1.031-1.036,2.059.27,2.85a9.435,9.435,0,0,0,3.9,1.15,31.2,31.2,0,0,0,15.245-2.256c3.061-1.212,6.188-2.254,9.279-3.393.456-.168.625-.187.622.4-.023,4.007-.018,8.013,0,12.019,0,.389-.088.577-.5.65a84.477,84.477,0,0,1-18.847,1.291,80.44,80.44,0,0,1-19.172-3.2,45.077,45.077,0,0,1-8.732-3.145,13.927,13.927,0,0,1-4.55-3.637,9.009,9.009,0,0,1-1.388-2.906Z" transform="translate(0 -75.166)" fill="#15c6ee"/><path d="M3124.438-326.971v-4.747c0-3.266.013-6.533-.014-9.8a.756.756,0,0,1,.622-.862,94.783,94.783,0,0,1,15.162-3.673,78.341,78.341,0,0,1,14.564-1.03,78.661,78.661,0,0,1,25.023,4.494,38.324,38.324,0,0,1,6.8,2.921,12.912,12.912,0,0,1,3.595,2.985,5.538,5.538,0,0,1-.136,7.543,19.664,19.664,0,0,1-5.494,4.139,60.059,60.059,0,0,1-9.363,3.866q-22.113,7.942-44.229,15.874-2.968,1.065-5.933,2.134c-.179.064-.365.107-.591.172v-5.466c0-2.853.012-5.706-.012-8.558a.73.73,0,0,1,.588-.827q19.854-7.045,39.7-14.119a11.966,11.966,0,0,0,3.1-1.476c.653-.475,1.356-.986,1.28-1.911-.079-.963-.886-1.357-1.646-1.678a16.348,16.348,0,0,0-6.134-1.008,34.424,34.424,0,0,0-12.509,2.456c-7.9,2.864-15.849,5.608-23.779,8.4C3124.851-327.079,3124.665-327.036,3124.438-326.971Z" transform="translate(-97.955 -82.147)" fill="#15c6ee"/><path d="M3239.754-275.715a5.917,5.917,0,0,1,5.9,5.957,5.906,5.906,0,0,1-5.939,5.911,5.957,5.957,0,0,1-5.923-5.951A5.97,5.97,0,0,1,3239.754-275.715Zm4.867,5.918a4.861,4.861,0,0,0-4.89-4.883,4.92,4.92,0,0,0-4.915,4.884,4.928,4.928,0,0,0,4.947,4.919A4.87,4.87,0,0,0,3244.621-269.8Z" transform="translate(-155.532 -119.732)" fill="#15c6ee"/><path d="M3240.95-267.1c0-.936.011-1.872-.006-2.807-.006-.339.046-.516.452-.5,1,.031,2,0,3,.028a1.72,1.72,0,0,1,1.7.987,1.84,1.84,0,0,1-.315,2.12c-.1.1-.275.176-.062.341a1.472,1.472,0,0,1,.427,1.243,2.211,2.211,0,0,0,.348,1.546.25.25,0,0,1,0,.241c-.327.233-.705.078-1.061.109-.255.022-.327-.165-.344-.381-.04-.5-.095-1-.115-1.5-.021-.529-.26-.808-.8-.8-.651.01-1.476-.219-1.9.095s-.14,1.181-.115,1.8c.025.6-.091.873-.765.806-.4-.04-.454-.187-.448-.522C3240.961-265.23,3240.95-266.166,3240.95-267.1Zm2.5-2.245v-.007c-.325,0-.651,0-.976,0-.2,0-.336.036-.332.28.009.434,0,.868,0,1.3,0,.2.109.261.289.253a14.232,14.232,0,0,0,1.947-.062.808.808,0,0,0,.709-.984.776.776,0,0,0-.858-.779C3243.969-269.351,3243.708-269.347,3243.448-269.347Z" transform="translate(-159.299 -122.523)" fill="#15c6ee"/></g></svg>