<svg xmlns="http://www.w3.org/2000/svg" width="197.167" height="76.337" viewBox="0 0 197.167 76.337"><g transform="translate(-2972.438 187.074)"><path d="M2990.255-147.885c1.931.627,3.805.184,5.64.3a9.815,9.815,0,0,1,9.573,10.223c-.043,2.894-1.466,4.9-4.114,6.485a9.66,9.66,0,0,1,5.4,5.1,10.568,10.568,0,0,1,.056,7.376c-1.524,4.837-5.949,7.619-11.73,7.589-6.723-.036-13.447-.071-20.169.02-1.76.024-2.493-.256-2.472-2.282q.162-16.133,0-32.267c-.019-1.989.664-2.353,2.451-2.311,4.715.114,9.435.039,14.17-.2-2.412-.7-4.911-.8-7.261-1.645-4.7-1.693-8-4.648-9.129-9.692-.393-1.761-.3-2.87,2.078-2.683,2.762.217,5.554.028,8.333.062,1.684.02,3.358-.429,4.657,1.532.773,1.167,2.638.829,4.053.427a1.5,1.5,0,0,0,1.155-1.341,1.43,1.43,0,0,0-1.125-1.615,21.683,21.683,0,0,0-3.424-.614,34.375,34.375,0,0,1-8.933-1.777c-4.062-1.548-6.427-4.448-6.768-8.837a10.057,10.057,0,0,1,4.991-9.755c5.088-3.27,10.728-3.74,16.559-2.953a16.351,16.351,0,0,1,9.018,3.809,11.432,11.432,0,0,1,2.193,2.689c2.715,4.618,2.119,5.67-3.1,5.671-2.062,0-4.123,0-6.184,0-1.486,0-2.95.244-4.134-1.179-.629-.755-1.84-.641-2.818-.433-1.022.217-1.9.755-1.888,1.94s.856,1.684,1.946,1.823c2.487.319,4.979.6,7.458.974a19.619,19.619,0,0,1,3.123.769c4.238,1.374,7.265,3.853,7.64,8.643.411,5.24-1.758,9.227-6.279,11.465a23.792,23.792,0,0,1-8.266,2.193C2992.1-148.291,2991.161-148.594,2990.255-147.885Zm-1.056,26.949c1.933.067,3.818.027,3.745-2.389-.076-2.471-2.112-2.035-3.776-2.219-2.008-.222-2.253.7-2.314,2.425C2986.782-121.089,2987.589-120.6,2989.2-120.936Zm-2.264-15.083c-.14,1.289-.1,2.3,1.7,2.149,1.444-.122,2.807-.245,2.773-2.046-.033-1.7-1.405-1.712-2.706-1.795S2986.6-137.509,2986.935-136.019Z" fill="#15c6ee"/><path d="M3054.969-158.84c0,2.572-.052,5.146.022,7.716.038,1.285-.158,1.951-1.712,1.9-3.583-.117-7.173-.091-10.757-.013-1.478.032-2.037-.392-2.029-1.967.059-10.936.032-21.873.029-32.81,0-.99-.2-2.016,1.4-1.956,7.067.265,14.176-.606,21.205.615,9.107,1.582,13.789,9.331,10.8,17.695a9.1,9.1,0,0,1-3.131,4.6c-1.614,1.117-1.358,2.05-.519,3.483,1.581,2.7,2.938,5.534,4.434,8.287.812,1.494.5,2.078-1.261,2.048-3.764-.066-7.532-.08-11.3.02-1.359.037-1.88-.648-2.367-1.7-1.264-2.719-2.589-5.409-3.889-8.11Zm-.243-14.391c.181,1.884-.442,3.5,1.741,3.226,1.644-.2,3.686.058,3.71-2.429.021-2.24-1.7-2.284-3.389-2.465C3054.706-175.123,3054.616-173.973,3054.726-173.231Z" fill="#15c6ee"/><path d="M3062.229-147.6c2.087.209,5.123-.98,6.908.45,1.639,1.313,2.014,4.24,2.87,6.484,3.445,9.023,6.826,18.071,10.312,27.079.786,2.031.653,2.945-1.86,2.808a80.49,80.49,0,0,0-9.4.012c-1.91.121-2.859-.579-3.2-2.318-.317-1.614-1.245-2.134-2.849-1.984a28.029,28.029,0,0,1-4.563.01c-2.6-.182-5.017-.233-5.507,3.214-.181,1.272-1.283.993-2.144.995-3.313.011-6.637-.154-9.937.058-2.675.171-2.567-.994-1.852-2.844,2-5.171,3.966-10.353,5.945-15.532,2.073-5.429,4.209-10.835,6.178-16.3.574-1.593,1.321-2.3,3.062-2.165C3058.063-147.478,3059.954-147.6,3062.229-147.6Zm-.33,15.248-.477-.059c-.476,2.17-.943,4.343-1.433,6.51-.112.5-.518,1.163.237,1.305a8.155,8.155,0,0,0,2.906.026c.713-.129.379-.869.27-1.352C3062.916-128.064,3062.4-130.2,3061.9-132.347Z" fill="#15c6ee"/><path d="M3009.2-129.117c0-5.466.059-10.933-.036-16.4-.029-1.679.526-2.119,2.153-2.106q12.765.1,25.532-.01c1.556-.014,2.017.459,1.959,1.965-.1,2.595-.118,5.2.008,7.793.079,1.623-.6,1.91-2.032,1.876-3.761-.088-7.527.011-11.289-.057-1.313-.024-1.9.239-1.906,1.744-.011,1.534.63,1.757,1.914,1.738,3.673-.053,7.35.066,11.021-.043,1.679-.05,2.338.332,2.326,2.179-.028,4.635.07,4.634-4.646,4.629-2.957,0-5.917.083-8.87-.03-1.522-.059-1.716.587-1.746,1.89-.034,1.439.624,1.579,1.787,1.563,3.763-.053,7.529.054,11.289-.057,1.583-.046,2.254.28,2.154,2.033-.153,2.679-.078,5.375-.021,8.061.024,1.138-.342,1.568-1.528,1.563-8.782-.04-17.564-.057-26.345,0-1.531.01-1.754-.656-1.743-1.941C3009.222-118.186,3009.2-123.652,3009.2-129.117Z" fill="#15c6ee"/><path d="M3076.835-167.83c0-5.286.069-10.573-.037-15.856-.034-1.683.283-2.33,2.154-2.307,8.421.1,16.845.089,25.266.012,1.688-.015,2.414.338,2.28,2.192a53.36,53.36,0,0,0-.011,6.983c.107,1.8-.344,2.512-2.318,2.416-3.575-.173-7.165-.039-10.749-.056-1.195-.006-2.253-.171-2.236,1.693.016,1.722.808,1.821,2.15,1.8,3.583-.067,7.171.069,10.75-.061,1.792-.065,2.483.323,2.431,2.3-.116,4.479,0,4.481-4.538,4.476-3.044,0-6.09.055-9.132-.037-1.386-.042-1.638.57-1.614,1.76.023,1.124.116,1.819,1.578,1.783,3.94-.1,7.884.021,11.825-.054,1.357-.026,1.913.3,1.848,1.77-.139,3.126,1.03,7.115-.486,9.143-1.449,1.937-5.68.537-8.683.583-6.091.092-12.185-.027-18.277.067-1.715.027-2.294-.393-2.251-2.213C3076.915-156.9,3076.832-162.365,3076.835-167.83Z" fill="#15c6ee"/><path d="M3108.117-167.713c0-5.375.051-10.75-.035-16.123-.025-1.553.244-2.184,2.015-2.164,8.6.1,17.2.07,25.8.015,1.37-.009,1.909.322,1.842,1.787-.143,3.124,1.021,7.112-.5,9.138-1.458,1.947-5.683.44-8.687.606-1.34.075-2.689.06-4.03.012-1.174-.043-2.018-.043-2.025,1.612-.007,1.615.585,1.925,2.033,1.892,3.761-.085,7.526.047,11.286-.06,1.55-.044,1.91.465,1.909,1.957,0,4.77.064,4.769-4.744,4.77-2.956,0-5.913.054-8.868-.017-1.383-.034-1.575.63-1.583,1.794-.008,1.2.223,1.791,1.612,1.761,3.761-.082,7.527.045,11.286-.059,1.649-.045,2.437.262,2.306,2.156a70.066,70.066,0,0,0-.011,7.521c.051,1.341-.252,1.9-1.739,1.886-8.689-.066-17.38-.082-26.068,0-1.7.016-1.836-.734-1.822-2.089C3108.15-156.785,3108.118-162.249,3108.117-167.713Z" fill="#15c6ee"/><path d="M3154.354-185.948c4.123,0,8.254.142,12.367-.057,2.33-.113,3.027.712,2.686,2.86a13.552,13.552,0,0,0-.017,1.88c-.034,2.146.682,4.809-.33,6.292-.992,1.454-3.827.473-5.845.482-1.811.009-1.433,1.19-1.434,2.2-.012,6.9-.079,13.8.04,20.7.032,1.912-.533,2.443-2.4,2.363-3.4-.144-6.814-.121-10.216,0-1.567.054-1.941-.478-1.926-1.968.07-6.9-.041-13.8.075-20.7.032-1.919-.316-2.637-2.445-2.587-5.492.129-5.5.012-5.491-5.588,0-5.877,0-5.876,5.789-5.874Q3149.783-185.945,3154.354-185.948Z" fill="#15c6ee"/><path d="M3023.7-185.95c4.394,0,8.789.068,13.181-.034,1.556-.037,2,.465,1.933,1.966-.107,2.6-.107,5.2.009,7.8.065,1.448-.425,1.806-1.822,1.812-1.93.009-4.559-.917-5.608.45-.968,1.263-.373,3.763-.381,5.718-.026,5.648-.079,11.3.035,16.945.034,1.707-.5,2.133-2.124,2.084-3.492-.108-6.993-.1-10.485.022-1.586.053-1.909-.508-1.891-2,.081-6.9-.033-13.808.082-20.71.032-1.927-.347-2.644-2.461-2.608-5.459.094-5.461-.018-5.459-5.354,0-6.1,0-6.1,6.114-6.1Q3019.258-185.951,3023.7-185.95Z" fill="#15c6ee"/><path d="M3091.744-147.584c4.214,0,8.43.071,12.641-.036,1.681-.042,2.409.328,2.3,2.181-.158,2.59-.106,5.2-.011,7.8.048,1.328-.435,1.65-1.693,1.655-1.945.007-4.572-.879-5.671.346-1.3,1.45-.384,4.1-.408,6.221-.063,5.468-.1,10.939.026,16.405.044,1.836-.563,2.294-2.275,2.235a92.973,92.973,0,0,0-9.678.026c-2.308.162-2.609-.809-2.582-2.76.093-6.723-.042-13.448.074-20.17.033-1.9-.5-2.406-2.382-2.377-5.514.084-5.516,0-5.53-5.586-.014-5.936-.014-5.936,6.048-5.936Z" fill="#15c6ee"/></g></svg>