<svg xmlns="http://www.w3.org/2000/svg" width="241" height="104" viewBox="0 0 241 104"><g transform="translate(-2141.121 -2467.379)"><path d="M11.125,104a2.267,2.267,0,0,1-2.264-2.264V12.061H2.076a2.076,2.076,0,1,1,0-4.152h9.237a2.085,2.085,0,0,1,1.666.837A15,15,0,0,1,26.617,0H226a15,15,0,0,1,15,15V67.449a15,15,0,0,1-15,15H137.63a7.324,7.324,0,0,1-7.315,7.315H48.27a7.323,7.323,0,0,1-7.315-7.315H26.617a14.989,14.989,0,0,1-13.227-7.921v27.208A2.267,2.267,0,0,1,11.125,104ZM174.253,4.548a36.432,36.432,0,0,0-25.9,10.771A36.84,36.84,0,0,0,160,75.209a36.492,36.492,0,0,0,40.151-7.881,36.839,36.839,0,0,0-11.641-59.89A36.265,36.265,0,0,0,174.253,4.548Zm-96.675,0a36.434,36.434,0,0,0-25.9,10.771A36.839,36.839,0,0,0,63.322,75.209a36.491,36.491,0,0,0,40.151-7.881A36.84,36.84,0,0,0,91.832,7.438,36.26,36.26,0,0,0,77.577,4.548Z" transform="translate(2141.121 2467.379)" fill="#15c6ee"/><text transform="translate(2188.121 2553.379)" fill="#fff" font-size="4" font-family="SegoeUI, Segoe UI"><tspan x="0" y="0">Videocard </tspan></text></g></svg>