<svg xmlns="http://www.w3.org/2000/svg" width="151.215" height="100.404" viewBox="0 0 151.215 100.404"><path d="M133.9,100.4a6.9,6.9,0,0,1-3.6-.735c-.3-.708-.779-2.083-1.391-3.824a181.927,181.927,0,0,0-7.6-19.041,43.92,43.92,0,0,0-5.135-8.432,13.02,13.02,0,0,0-2.717-2.567,5,5,0,0,0-2.747-.943,3.71,3.71,0,0,0-.781.083c-6.273,1.354-21.9,1.835-33.376,1.835-7.366,0-13.141-.2-14.372-.5-.519,0-1.04,0-1.548,0-5.988,0-14.205-.233-19.351-1.344a3.71,3.71,0,0,0-.781-.083,5,5,0,0,0-2.747.943,13.018,13.018,0,0,0-2.717,2.567A43.909,43.909,0,0,0,29.9,76.8a181.883,181.883,0,0,0-7.6,19.04c-.612,1.743-1.1,3.119-1.392,3.827a6.9,6.9,0,0,1-3.6.735,13.117,13.117,0,0,1-5.09-.989,17.464,17.464,0,0,1-4.25-2.6,17.737,17.737,0,0,1-3.243-3.573A25.889,25.889,0,0,1,.905,83.679,52.892,52.892,0,0,1,.029,71.737a100.948,100.948,0,0,1,1.354-13.3C4.357,40.24,11.37,21.105,14.74,11.909c.84-2.291,1.447-3.947,1.722-4.85A7.091,7.091,0,0,1,18.9,3.6a13.63,13.63,0,0,1,4.142-2.164A31.269,31.269,0,0,1,32.656,0c2.523,0,4.69.3,5.042.69,1.02,1.143.485,3.307.479,3.329l.025,0c2.041-.239,20.235-2.336,30.406-2.336.456,0,.894,0,1.3.013,1.094-.062,2.424-.094,3.953-.094,13.336,0,38.919,2.4,39.176,2.421v0c-.054-.225-.5-2.234.48-3.327C113.87.3,116.038,0,118.56,0a31.271,31.271,0,0,1,9.609,1.431A13.628,13.628,0,0,1,132.311,3.6a7.091,7.091,0,0,1,2.443,3.463c.275.9.881,2.556,1.72,4.845l0,0c3.37,9.2,10.383,28.33,13.357,46.525a100.944,100.944,0,0,1,1.355,13.3,52.894,52.894,0,0,1-.876,11.942,25.89,25.89,0,0,1-3.826,9.564,17.738,17.738,0,0,1-3.243,3.573,17.463,17.463,0,0,1-4.25,2.6A13.119,13.119,0,0,1,133.9,100.4Zm-33.55-58.141a7.952,7.952,0,1,0,5.624,2.329A7.9,7.9,0,0,0,100.351,42.263Zm-49.306,0a7.952,7.952,0,1,0,5.623,2.329A7.9,7.9,0,0,0,51.045,42.263Zm71.839-6.892a5.036,5.036,0,1,0,5.037,5.036A5.042,5.042,0,0,0,122.884,35.371ZM27.547,31.354,23.48,34.871l0,5.145a6.267,6.267,0,0,0,4.316,2.052,5.252,5.252,0,0,0,3.033-1.026,6.133,6.133,0,0,0,1.144-1.026V34.871l-3.413-3.517Zm106.471-7.115a5.036,5.036,0,1,0,5.036,5.036A5.042,5.042,0,0,0,134.018,24.239Zm-22.8,0a5.036,5.036,0,1,0,5.036,5.036A5.042,5.042,0,0,0,111.22,24.239ZM16.813,25.3h0a6.1,6.1,0,0,0-2.044,4.6,5.371,5.371,0,0,0,1.076,2.832,6.114,6.114,0,0,0,.969,1.063h5.145l3.518-3.413V29.37L21.958,25.3l-5.145,0Zm16.84,0-3.518,3.413V29.72l3.518,4.066,5.145,0a6.1,6.1,0,0,0,2.045-4.6,5.371,5.371,0,0,0-1.076-2.832A6.129,6.129,0,0,0,38.8,25.3H33.653Zm-6-8.788a5.251,5.251,0,0,0-3.031,1.026,6.184,6.184,0,0,0-1.144,1.026v5.145l3.414,3.517H27.9l4.067-3.517,0-5.145A6.266,6.266,0,0,0,27.651,16.511Zm95.233-3.4a5.036,5.036,0,1,0,5.037,5.036A5.042,5.042,0,0,0,122.884,13.107Z" transform="translate(-0.001)" fill="#15c6ee"/></svg>