<svg id="Слой_1" data-name="Слой 1" xmlns="http://www.w3.org/2000/svg" xmlns:xlink="http://www.w3.org/1999/xlink" viewBox="0 0 244.55 273.39"><defs><style>.cls-1{fill:#5ca4da;}.cls-2{fill:url(#linear-gradient);}.cls-3{fill:#c1e6ea;}.cls-4{fill:url(#linear-gradient-2);}.cls-5{fill:url(#linear-gradient-3);}.cls-6{fill:url(#linear-gradient-4);}.cls-7{fill:#d3d3d3;}.cls-8{fill:url(#linear-gradient-5);}.cls-9{fill:#bababa;}.cls-10{fill:#d3edef;}.cls-11{fill:#040404;}.cls-12{fill:#dcdbdb;}.cls-13{fill:#ef3f49;}.cls-14{fill:#fbfcfc;}.cls-15{fill:#77d2f7;}.cls-16{fill:#ecf8fe;}.cls-17{fill:#9ddcf7;}.cls-18{fill:#63bfe0;}.cls-19{fill:#c8eaf8;}.cls-20{fill:#e7f6fd;}.cls-21{fill:#378bbf;}.cls-22{fill:#3d99c6;}.cls-23{fill:#e0f3fc;}.cls-24{font-size:7.5px;fill:#bbd2e8;font-family:AGRESSIVE;letter-spacing:-0.06em;}</style><linearGradient id="linear-gradient" x1="688.5" y1="1146.95" x2="811.68" y2="1164.3" gradientUnits="userSpaceOnUse"><stop offset="0" stop-color="#44c8f5"/><stop offset="0.02" stop-color="#43c1ee"/><stop offset="0.18" stop-color="#3a97c8"/><stop offset="0.34" stop-color="#3375a8"/><stop offset="0.49" stop-color="#2e5a8f"/><stop offset="0.66" stop-color="#2a477d"/><stop offset="0.82" stop-color="#283c72"/><stop offset="1" stop-color="#27386f"/></linearGradient><linearGradient id="linear-gradient-2" x1="829.82" y1="1133.81" x2="926.23" y2="1133.81" gradientUnits="userSpaceOnUse"><stop offset="0" stop-color="#44c8f5"/><stop offset="0.35" stop-color="#3992c3"/><stop offset="0.79" stop-color="#2c5187"/><stop offset="1" stop-color="#27386f"/></linearGradient><linearGradient id="linear-gradient-3" x1="742.58" y1="1244.34" x2="874.97" y2="1111.96" xlink:href="#linear-gradient-2"/><linearGradient id="linear-gradient-4" x1="773.44" y1="1157.58" x2="817.32" y2="1081.58" xlink:href="#linear-gradient-2"/><linearGradient id="linear-gradient-5" x1="762.31" y1="1134.6" x2="834.81" y2="1134.6" gradientUnits="userSpaceOnUse"><stop offset="0.22" stop-color="#ed1c24"/><stop offset="0.28" stop-color="#db1e2a"/><stop offset="0.64" stop-color="#742a4c"/><stop offset="0.88" stop-color="#323261"/><stop offset="1" stop-color="#193569"/></linearGradient></defs><title>V500_3</title><path class="cls-1" d="M691,1171.61s-3.7-6-1.64-10.48,3.65-8,6-9.66c3-2.1,10.27-3.58,13.77-4.52,3.09-.84,9.4-2,12.53-2.67,2.67-.57,8-1.56,10.69-2.26,2.45-.65,7.24-2.34,9.66-3.09.51-.15,1.53-.48,2.06-.61,1.52-.38,6.16-1.24,6.16-1.24l5.64-2.66s4.43-2.68,5.05-2.88,7.4-4.32,7.4-4.32l9-3.91,9-4.31,9.45-7,6.17-3.27s6.58,9,10.07,6.78,3.6-1.85,3.6-1.85l8.12-4.11,3.18-2.87,4.94-3.5,3.28-.61,6.68,3,6.48,6.68,6.27.1s3.28,1.85,3.69,2.47,1.14,0,1.14,0l.71,3.9,2.27,1.44,1.74,1,1.65.72,2.57,1.33-4.32-10s11.3,13.16,36.58,3.29c0,0,10.67-5.06,11.29-10.19,0,0,2.08-8.95,7.42-10,0,0,3.08,7.64,3.69,19.76,0,0,3,27.82,2.36,45.9L908,1181.48Z" transform="translate(-684.75 -1024.89)"/><path class="cls-2" d="M687.86,1163.87a11,11,0,0,1,.84-3.21c1-2.3,2.86-7.76,5.24-8.53.91-.29,2.58,1.22,3.5,1.47A81.25,81.25,0,0,0,708,1155c4.15.38,12.48.74,16.65.82,4.78.1,14.33-.17,19.11-.13,3.14,0,9.41.2,12.54.13,2,0,6.23.5,8-.41a9.34,9.34,0,0,0,3.49-4.31c.43-1.61-.67-4.95-1-6.58-.32-1.46-2-4.33-1.64-5.77.25-.85,1.9-1.7,3.13-1.7s7.37-2,8-2.21,4.2-1.85,5.49-1.29,2.34,3.92,3.13,5.22c.91,1.49,2.59,4.59,3.7,6a48.56,48.56,0,0,0,5.75,5.54c1.54,1.23,5,3.09,6.58,4.32a37.4,37.4,0,0,1,5.55,5.34c1.28,1.8,2.78,6,3.7,8a31.54,31.54,0,0,1,2.05,4.52c.38,1.76,0,7.19,0,7.19s-52.82.83-59.39.62-50.15-4.73-55.7-5.55-7.13-2.79-8-5A21.7,21.7,0,0,1,687.86,1163.87Z" transform="translate(-684.75 -1024.89)"/><path class="cls-1" d="M783.31,1120.69c1.65-1.44,28-18.09,29-18.5s15.77-7.64,16.85-8.22,14.61-8.48,15.83-9.25,7.55-4.09,8.84-4.93a2.79,2.79,0,0,1,2.87-.2c2,1.54,3.7,6.37,4.94,8.63s3.28,6.78,3.28,7.81-1.28,3.41-1.85,5.14c-.23.7-.61,3.9-.2,4.93s3.08,5.14,2.46,5.14S863,1113,863,1113l-2,2-13.57-13.77-29,8s-20.35,6.58-22,7.19S783.31,1120.69,783.31,1120.69Z" transform="translate(-684.75 -1024.89)"/><path class="cls-3" d="M839.42,1103.36c.27-.41,5.13-3.25,6.85-4.32,1.22-.76,4.38-2.88,4.8-3.22a3.31,3.31,0,0,1,2.51-.83,4.73,4.73,0,0,1,2.58,2.23c1.29,1.92,3.33,4.22,3.81,5s3.91,5,4.45,6,1.79,2.88,1.24,3.36a41.18,41.18,0,0,1-6,2.81,37.54,37.54,0,0,1-4.87.75C854.29,1115,839.42,1103.36,839.42,1103.36Z" transform="translate(-684.75 -1024.89)"/><path class="cls-4" d="M829.82,1112l12.66-7.26s4.54-3.58,4.95-3.85,2.77.79,2.77.79l19.87,16,5.34,1.64,7.12,1L892,1119l4.79-1.37,3.16-2.19a40.3,40.3,0,0,0,3.69-3.56c.69-1,2.84-2.19,3.39-2.88s3.61-3.65,4.29-4.61a19.14,19.14,0,0,1,2.46-3.12c.83-.69.69-3.37,1.79-3.78s3.15-1.44,3.15-1.44,1.31,1,1.31,1.6-.46,5-.18,6.21,1.47,10.82,1.74,11.92a49.08,49.08,0,0,1,1.1,5.55c.14,1.51.46,6.18.6,7.55s1.53,4.77,1.67,6.14.81,11.37.87,12,.29,8.72.29,8.72v1a21.71,21.71,0,0,1,0,4.25,10,10,0,0,1-1,2.12s-21.17,4.86-23.23,5.82-19.18,3-22.74,2.74-13.43-3.7-13.43-3.7l-9.12-15.48L846.16,1138S832.29,1124.08,829.82,1112Z" transform="translate(-684.75 -1024.89)"/><path class="cls-1" d="M900.71,1115.52s.65,3.17.65,3.58a8.37,8.37,0,0,0,1.1,3.2,11.41,11.41,0,0,0,2.9,2.07c.36.17,3.52,1.3,4.71,1.19,2.72-.26,3.69-1.51,8.93,1.78s5,7.15,6,7.35L920,1097.43s-2.52-3.71-4.18-.2c-2.08,4.39-6.4,7.77-7.16,10.61S901.43,1114.8,900.71,1115.52Z" transform="translate(-684.75 -1024.89)"/><path class="cls-5" d="M689.32,1190.77s-5.1-2.18-4.52-13.77c.55-11,2.46-10.68,2.46-10.68l31.45,5.13s32.51,2.49,43.36,2.88c8.43.31,25.31.9,33.71.21,1.82-.15,5.39-1,7.19-1.24,3.28-.51,13.16-1.85,13.16-1.85l19.52-2.87,19.94-2.68,19.32-.82,22.81-1.44,17.26-.41,10.07-.2s5.14-2.67,4.11,24.66c0,0,2.68,12.13-27.13,11.71s-96,0-96,0l-52.62-.82-30.62-1.85-22.2-2.67Z" transform="translate(-684.75 -1024.89)"/><path class="cls-6" d="M771.39,1136.65c-1.27.4-7.81,2.61-7.81,2.61s-5.19,1.67-7.12,2c-2.11.41-6.44.82-6.44.82a7.44,7.44,0,0,1-7.55-3.56s5.68-1.32,7.82-2.06c3.09-1,7-3.69,7.67-4s7.95-4.38,8.5-4.66,8.77-3.83,9.32-4,4.52-2.6,5.34-2.88a48.06,48.06,0,0,0,5.62-2.74c.53-.42,4.79-4,5.75-4.66s5.07-3.83,6.85-4.38,6.72-3.29,9.18-4a110.67,110.67,0,0,0,10.69-4.25c1.37-.69,4.93-2.47,6.44-3.29s3.47-2.07,4.79-2.6,4.53-3.57,9.87-.28a35.15,35.15,0,0,1,7.76,6.12l-3.72,2.56s-7.76,5.2-10.07,6.53c-1.26.73-7,3.56-7,3.56l-5.34,2.06a29.43,29.43,0,0,0-3.56,1.37c-1.61.94-2.91,1.46-5.21,2.88-1.42.88-4.78,2.71-5.51,3-1.33.57-4.16,1.94-6.55,2.72-2,.67-7,2.6-7,2.6" transform="translate(-684.75 -1024.89)"/><path class="cls-7" d="M798.84,1109.43s-2.23,4.83-1.42,6.56c.59,1.26,1.44,3.47,1.65,3.74s2.79.13,3.42,0c2.45-.5,1.31-3.49,1.24-4.18a44.24,44.24,0,0,1-.62-4.66,14.71,14.71,0,0,0-.62-3.29C802.43,1107.33,798.84,1109.43,798.84,1109.43Z" transform="translate(-684.75 -1024.89)"/><path class="cls-7" d="M820.13,1096.64a13.82,13.82,0,0,1,3.6-.77,6.35,6.35,0,0,1,2.88.11,10.65,10.65,0,0,1,3.08,1.64c.67.62,2.09,2.1,2.45,2.46a5.22,5.22,0,0,1,1.35,2,1.2,1.2,0,0,1-.66,1.23,2.59,2.59,0,0,1-2.16-.41,41.28,41.28,0,0,0-5.65-3,38.61,38.61,0,0,0-4.58-1.23c-.2,0-1.38-.31-1.38-.52A3.84,3.84,0,0,1,820.13,1096.64Z" transform="translate(-684.75 -1024.89)"/><path class="cls-7" d="M804.89,1104.32a40.93,40.93,0,0,1,1.58,5.27c.34,1.58.2,3.84,1.3,4.32s2.6.27,2.94-.28a25.73,25.73,0,0,0,.83-4.59c.13-1-.21-4-.21-4.72a26.14,26.14,0,0,0-.2-2.61C811.06,1101.3,804.89,1104.32,804.89,1104.32Z" transform="translate(-684.75 -1024.89)"/><path class="cls-8" d="M814.14,1098.56s-27.06,9.73-12.47,38.3l-.2-.14-36.79,20.48s-2.74,2.33-2.33,3.43,5.07,10.14,5.07,10.14a5.5,5.5,0,0,0,3.29.82,409.45,409.45,0,0,0,39.17-21.28c.46-.28.44-.72.55-1.33a6.42,6.42,0,0,1,.23-1l.72-2.21c.24-.71.84-2.1.84-2.1s3.66-3.64,4.93-4.8c2-1.81,6-5.24,7.87-7.21a61.93,61.93,0,0,0,6.52-8.13C835.34,1116.91,841.06,1092.48,814.14,1098.56Zm7.7,32.25c-2.26,2.06-7.23,6.48-10.23,7.07-2.15.43-7-.44-7.94-2.13-3.85-7-9.22-27.66,12.05-35.11,0,0,15.72-3,16.54,7.51C832.26,1108.15,834.06,1119.7,821.84,1130.81Z" transform="translate(-684.75 -1024.89)"/><path class="cls-7" d="M754.06,1134c-.86,1.5.52,3,1.49,3.45a3,3,0,0,0,2.19-.14c1.1-.37,2.65-1.31,2.88-2.19s-.72-3.65-.72-3.65Z" transform="translate(-684.75 -1024.89)"/><path class="cls-7" d="M766.53,1127c-.14,1-.69,4.11.68,4.8s3.84-.82,4.25-2.33.27-2.74,1.1-4.25S766.53,1127,766.53,1127Z" transform="translate(-684.75 -1024.89)"/><path class="cls-7" d="M778.38,1121.44c-.34.6-.27,5.89.68,7.54s3-.54,3.43-1.37a18.56,18.56,0,0,0,1-4.66c0-.55.18-2.63-.48-3C781.93,1119.32,779,1120.39,778.38,1121.44Z" transform="translate(-684.75 -1024.89)"/><path class="cls-7" d="M787.21,1117.66c-.27.78.33,4.32,1.5,4.66,1,.28,2.06-1.51,2.88-2.88s2.33-6.85,2.33-6.85-1.92-1.23-3.15.41S787.68,1116.27,787.21,1117.66Z" transform="translate(-684.75 -1024.89)"/><path class="cls-7" d="M814,1098.08c-.4.49.28,3.56.62,4.39s1,2.74,1.71,4.45,1,2.86,1.85,3.43c.41.28,2.53.35,2.81-.83a15.84,15.84,0,0,0,.07-4c-.07-1.37-.15-4.5-.34-6-.07-.53-.24-1.32-.38-2s-.4-1.51-.79-1.69C818.18,1095.15,815,1096.93,814,1098.08Z" transform="translate(-684.75 -1024.89)"/><path class="cls-9" d="M861.56,1110.9s28.07,26.16,53.55-13.46c2.68-4.17,6.36-.2,4.76,1.37C913.49,1105,891.84,1143.5,861.56,1110.9Z" transform="translate(-684.75 -1024.89)"/><path class="cls-10" d="M864.05,1174.67l-.31-1.41,0-1.22,1,0,0,1.23-.17,1.43Zm1.69-.06-.31-1.42,0-1.22,1,0,.05,1.22-.19,1.43Z" transform="translate(-684.75 -1024.89)"/><path class="cls-10" d="M869.55,1177.45c0-.13,0-.22,0-.28a2.51,2.51,0,0,1,.11-.94,2.21,2.21,0,0,1,.34-.61,8.16,8.16,0,0,1,.64-.67,3.26,3.26,0,0,0,.59-.69,1.09,1.09,0,0,0,.12-.56,1.27,1.27,0,0,0-.46-.92,1.43,1.43,0,0,0-1-.37,1.41,1.41,0,0,0-1,.41,1.91,1.91,0,0,0-.47,1.17l-.95-.07a2.56,2.56,0,0,1,4.11-1.73,1.87,1.87,0,0,1,.71,1.41,1.93,1.93,0,0,1-.19.92,4.24,4.24,0,0,1-.86,1,4.08,4.08,0,0,0-.56.61,1.34,1.34,0,0,0-.19.44,3.46,3.46,0,0,0,0,.8Zm0,1.84,0-1,1.05,0,0,1Z" transform="translate(-684.75 -1024.89)"/><path class="cls-10" d="M875.37,1177.21c0-.12,0-.21,0-.28a2.31,2.31,0,0,1,.12-.94,1.94,1.94,0,0,1,.33-.61,7,7,0,0,1,.64-.66,3.52,3.52,0,0,0,.59-.7,1,1,0,0,0,.12-.55,1.27,1.27,0,0,0-.46-.93,1.39,1.39,0,0,0-1-.36,1.37,1.37,0,0,0-1,.41,1.92,1.92,0,0,0-.47,1.17l-1-.08a2.26,2.26,0,0,1,2.34-2.26,2.53,2.53,0,0,1,1.77.53,1.88,1.88,0,0,1,.71,1.42,1.76,1.76,0,0,1-.19.91,4.24,4.24,0,0,1-.86,1,4.74,4.74,0,0,0-.56.61,1.3,1.3,0,0,0-.19.45,4,4,0,0,0,0,.79Zm0,1.84,0-1,1,0,0,1Z" transform="translate(-684.75 -1024.89)"/><path class="cls-10" d="M881.18,1177c0-.12,0-.21,0-.27a2.72,2.72,0,0,1,.12-.94,2.16,2.16,0,0,1,.33-.61,6.79,6.79,0,0,1,.64-.67,2.79,2.79,0,0,0,.59-.7,1,1,0,0,0,.12-.55,1.25,1.25,0,0,0-.45-.92,1.46,1.46,0,0,0-1-.37,1.41,1.41,0,0,0-1,.41,2,2,0,0,0-.47,1.17l-.95-.07a2.56,2.56,0,0,1,4.11-1.73,1.87,1.87,0,0,1,.71,1.41,1.82,1.82,0,0,1-.19.92,4.43,4.43,0,0,1-.86,1,4.83,4.83,0,0,0-.56.61,1.25,1.25,0,0,0-.19.44,4.09,4.09,0,0,0,0,.8Zm0,1.85-.05-1,1.05,0,0,1Z" transform="translate(-684.75 -1024.89)"/><path class="cls-10" d="M885.19,1173.82l-.31-1.42,0-1.22,1,0,0,1.22-.17,1.43Zm1.69-.07-.3-1.41-.05-1.23,1,0,0,1.22-.19,1.44Z" transform="translate(-684.75 -1024.89)"/><path class="cls-11" d="M794.67,1190.48c.74-1.21,1-2.63,1.92-3.78a10.67,10.67,0,0,1,8.63-4.31c3.45-.06,6.91,0,10.36,0,1.79,0,2.55.68,3,2.53-.51,1.93-1.26,2.52-3.3,2.53H806c-4,0-6.06,2-6.06,5.84v31.77c0,4,2,5.92,6.1,5.92,12.22,0,24.45-.06,36.67.06,2.52,0,4.13-.43,5.58-2.67a30.13,30.13,0,0,1,12.39-10.47c.79-.38,1-.65.52-1.46-1.48-2.62-2.87-5.29-4.37-8.08-.25.47-.46.83-.64,1.2-1.14,2.27-2.3,4.54-3.41,6.82a2.76,2.76,0,0,1-5.24.09c-2.16-4-4.34-8.08-6.5-12.12a5.65,5.65,0,0,1-.43-1,2.42,2.42,0,0,1,1.15-2.83,2.58,2.58,0,0,1,3.22.51,7.17,7.17,0,0,1,.91,1.38c1.37,2.52,2.72,5.05,4.17,7.75,1.37-2.73,2.68-5.29,3.94-7.87.55-1.14,1.23-2.08,2.66-2.11s2.16.87,2.75,2c1.38,2.63,2.81,5.23,4.29,8,.42-.83.79-1.54,1.15-2.26,1-2,2-4,3-6a2.67,2.67,0,0,1,3.58-1.44c1.41.62,1.85,2,1.13,3.65-.17.38-.38.76-.56,1.14-1.67,3.35-3.33,6.7-5.12,10.31a38,38,0,0,1,14.16-.86c-.29-.57-.46-.9-.64-1.23-1.65-3.06-3.31-6.12-4.93-9.2-1-1.85-.25-3.58,1.62-4a2.73,2.73,0,0,1,3,1.68c1.46,2.66,2.89,5.34,4.35,8.05.49-.31.56-.75.75-1.11q1.75-3.45,3.47-6.93a2.71,2.71,0,0,1,2.5-1.75,2.74,2.74,0,0,1,2.55,1.68c1.26,2.36,2.52,4.71,3.8,7.06.19.34.26.79.78,1,1.37-2.73,2.69-5.43,4.07-8.09a2.65,2.65,0,0,1,3.58-1.41,2.48,2.48,0,0,1,1.15,3.56c-2.11,4.3-4.27,8.57-6.42,12.86a2.55,2.55,0,0,1-2.38,1.51,2.61,2.61,0,0,1-2.42-1.47c-.94-1.71-1.85-3.44-2.78-5.16-.57-1.08-1.16-2.15-1.82-3.35-1.2,2.4-2.27,4.66-3.44,6.86-.42.78-.24,1,.55,1.34a33.23,33.23,0,0,1,17,13.71,1.48,1.48,0,0,0,1.47.76c3.77,0,7.54,0,11.3,0s5.83-2,5.84-5.67q0-16.08,0-32.15a8.08,8.08,0,0,0-.11-1.63c-.56-2.59-2.69-4.08-5.82-4.08H839.73c-2.32,0-3-.5-3.56-2.53.52-2,1.26-2.53,3.3-2.53q39.42,0,78.84,0c6.4,0,10.92,4.35,10.94,10.5q0,16.32,0,32.65c0,6.15-4.55,10.45-11,10.49-3.28,0-6.55,0-9.95,0a37.49,37.49,0,0,1,1.75,7.61,31.72,31.72,0,0,1-5.54,21.74c-.09.14-.16.3-.24.44a36.28,36.28,0,0,1-6.11,6.4c-.57.45-.48.74,0,1.17.74.65,1.43,1.36,2.14,2q8.49,8.17,17,16.35a3.93,3.93,0,0,0,3.86,1.32,3.44,3.44,0,0,0,1.63-6c-2.46-2.45-5-4.83-7.5-7.25-1.57-1.52-1.69-2.29-.68-4.12,1.9-1.1,2.74-1,4.29.45,2.49,2.38,5,4.74,7.43,7.16,4.11,4.08,3.8,9.75-.69,13.16a9.08,9.08,0,0,1-10.62,0,19.65,19.65,0,0,1-1.75-1.52q-9.54-9.16-19-18.36a1.71,1.71,0,0,0-2.39-.37c-18.63,9.58-42.4-.06-48.4-19.59a31.63,31.63,0,0,1,.13-19.53,2,2,0,0,0,.21-1.17h-1.41c-12,0-24-.09-36,0-5.44.05-10-2.68-11.39-7.67-.06-.19-.07-.42-.35-.47ZM876.16,1275c15.9,0,28.91-12.53,28.91-27.84s-13-27.84-28.91-27.84-28.92,12.54-28.91,27.85S860.27,1275,876.16,1275Z" transform="translate(-684.75 -1024.89)"/><path class="cls-12" d="M836.17,1184.91c.54,2,1.24,2.53,3.56,2.53h78.33c3.13,0,5.26,1.49,5.82,4.08a8.08,8.08,0,0,1,.11,1.63q0,16.08,0,32.15c0,3.62-2.11,5.66-5.84,5.67s-7.53,0-11.3,0a1.48,1.48,0,0,1-1.47-.76,33.23,33.23,0,0,0-17-13.71c-.79-.3-1-.56-.55-1.34,1.17-2.2,2.24-4.46,3.44-6.86.66,1.2,1.25,2.27,1.82,3.35.93,1.72,1.84,3.45,2.78,5.16a2.61,2.61,0,0,0,2.42,1.47,2.55,2.55,0,0,0,2.38-1.51c2.15-4.29,4.31-8.56,6.42-12.86a2.48,2.48,0,0,0-1.15-3.56,2.65,2.65,0,0,0-3.58,1.41c-1.38,2.66-2.7,5.36-4.07,8.09-.52-.22-.59-.67-.78-1-1.28-2.35-2.54-4.7-3.8-7.06a2.74,2.74,0,0,0-2.55-1.68,2.71,2.71,0,0,0-2.5,1.75q-1.71,3.48-3.47,6.93c-.19.36-.26.8-.75,1.11-1.46-2.71-2.89-5.39-4.35-8.05a2.73,2.73,0,0,0-3-1.68c-1.87.41-2.6,2.14-1.62,4,1.62,3.08,3.28,6.14,4.93,9.2.18.33.35.66.64,1.23a38,38,0,0,0-14.16.86c1.79-3.61,3.45-7,5.12-10.31.18-.38.39-.76.56-1.14.72-1.62.28-3-1.13-3.65a2.67,2.67,0,0,0-3.58,1.44c-1,2-2,4-3,6-.36.72-.73,1.43-1.15,2.26-1.48-2.74-2.91-5.34-4.29-8-.59-1.12-1.32-2-2.75-2s-2.11,1-2.66,2.11c-1.26,2.58-2.57,5.14-3.94,7.87-1.45-2.7-2.8-5.23-4.17-7.75A7.17,7.17,0,0,0,845,1201a2.58,2.58,0,0,0-3.22-.51,2.42,2.42,0,0,0-1.15,2.83,5.65,5.65,0,0,0,.43,1c2.16,4,4.34,8.07,6.5,12.12a2.76,2.76,0,0,0,5.24-.09c1.11-2.28,2.27-4.55,3.41-6.82.18-.37.39-.73.64-1.2,1.5,2.79,2.89,5.46,4.37,8.08.46.81.27,1.08-.52,1.46a30.13,30.13,0,0,0-12.39,10.47c-1.45,2.24-3.06,2.7-5.58,2.67-12.22-.12-24.45,0-36.67-.06-4.08,0-6.1-2-6.1-5.92v-31.77c0-3.86,2.05-5.83,6.06-5.84h9.33c2,0,2.79-.6,3.3-2.53h6.51c.43,1.64,1.29,2.47,2.59,2.51s2.27-.83,2.73-2.51Zm-13.9,23.4c1.61,3,3,5.74,4.55,8.44,1.13,2,3.66,2.18,4.7.21,2.31-4.38,4.51-8.83,6.65-13.3a2.47,2.47,0,0,0-2-3.52,2.78,2.78,0,0,0-2.87,1.77c-1.36,2.66-2.68,5.33-4.11,8.19-1.5-2.78-2.91-5.38-4.3-8-.59-1.11-1.33-2-2.76-2s-2.11,1-2.66,2.12c-1.26,2.57-2.55,5.13-3.84,7.72a2.58,2.58,0,0,1-.75-1.1c-1.27-2.35-2.52-4.71-3.82-7a2.64,2.64,0,0,0-3.19-1.56c-1.81.53-2.39,2.11-1.4,4,2.12,4,4.3,8,6.42,12,.61,1.15,1.34,2.12,2.84,2.08s2.09-1,2.64-2.14C819.59,1213.63,820.87,1211.11,822.27,1208.31Z" transform="translate(-684.75 -1024.89)"/><path class="cls-13" d="M914.64,1275.78c-1,1.83-.89,2.6.68,4.12,2.5,2.42,5,4.8,7.5,7.25a3.44,3.44,0,0,1-1.63,6,3.93,3.93,0,0,1-3.86-1.32q-8.48-8.19-17-16.35c-.71-.69-1.4-1.4-2.14-2-.49-.43-.58-.72,0-1.17a36.28,36.28,0,0,0,6.11-6.4l4.16,3.89a2.6,2.6,0,0,0-.38,3c.83,1.38,2.24,1.6,4.1.64Z" transform="translate(-684.75 -1024.89)"/><path class="cls-11" d="M830.45,1184.91c-.46,1.68-1.4,2.55-2.73,2.51s-2.16-.87-2.59-2.51c.43-1.64,1.3-2.48,2.59-2.52S830,1183.22,830.45,1184.91Z" transform="translate(-684.75 -1024.89)"/><path class="cls-11" d="M912.2,1273.41c-1.86,1-3.27.74-4.1-.64a2.6,2.6,0,0,1,.38-3c2-1.14,3.87-.62,4.39,1.23A2.86,2.86,0,0,1,912.2,1273.41Z" transform="translate(-684.75 -1024.89)"/><path class="cls-14" d="M876.16,1275c-15.89,0-28.91-12.53-28.91-27.83s13-27.84,28.91-27.85,28.91,12.54,28.91,27.84S892.06,1275,876.16,1275Zm23.13-27.78c0-12.24-10.38-22.31-23.1-22.33s-23.06,9.92-23.16,22.15,10.29,22.32,23,22.39S899.24,1259.49,899.29,1247.23Z" transform="translate(-684.75 -1024.89)"/><path class="cls-11" d="M822.27,1208.31c-1.4,2.8-2.68,5.32-3.92,7.85-.55,1.13-1.21,2.1-2.64,2.14s-2.23-.93-2.84-2.08c-2.12-4-4.3-8-6.42-12-1-1.87-.41-3.45,1.4-4a2.64,2.64,0,0,1,3.19,1.56c1.3,2.34,2.55,4.7,3.82,7a2.58,2.58,0,0,0,.75,1.1c1.29-2.59,2.58-5.15,3.84-7.72.55-1.13,1.23-2.08,2.66-2.12s2.17.88,2.76,2c1.39,2.62,2.8,5.22,4.3,8,1.43-2.86,2.75-5.53,4.11-8.19a2.78,2.78,0,0,1,2.87-1.77,2.47,2.47,0,0,1,2,3.52c-2.14,4.47-4.34,8.92-6.65,13.3-1,2-3.57,1.81-4.7-.21C825.31,1214.05,823.88,1211.3,822.27,1208.31Z" transform="translate(-684.75 -1024.89)"/><path class="cls-11" d="M899.29,1247.23c0,12.26-10.53,22.29-23.22,22.21s-23.14-10.17-23-22.39,10.49-22.17,23.16-22.15S899.33,1235,899.29,1247.23ZM876.18,1230c-9.82,0-17.88,7.72-17.89,17.18s8,17.22,17.84,17.23,17.88-7.72,17.9-17.18S886,1230,876.18,1230Z" transform="translate(-684.75 -1024.89)"/><path class="cls-15" d="M876.18,1230c9.83,0,17.86,7.77,17.85,17.23s-8.08,17.2-17.9,17.18-17.86-7.77-17.84-17.23S866.36,1230,876.18,1230ZM888,1247c0-5.7-4.68-10.45-10.94-11.11-1.92-.21-3.3.69-3.47,2.25s1,2.59,2.89,2.76a6.84,6.84,0,0,1,3.74,1.36,6.5,6.5,0,0,1,2.56,4.93,2.59,2.59,0,0,0,2.7,2.54A2.64,2.64,0,0,0,888,1247Z" transform="translate(-684.75 -1024.89)"/><path class="cls-11" d="M888,1247a2.64,2.64,0,0,1-2.52,2.73,2.59,2.59,0,0,1-2.7-2.54,6.5,6.5,0,0,0-2.56-4.93,6.84,6.84,0,0,0-3.74-1.36c-1.91-.17-3.05-1.28-2.89-2.76s1.55-2.46,3.47-2.25C883.29,1236.51,888,1241.26,888,1247Z" transform="translate(-684.75 -1024.89)"/><path class="cls-16" d="M806.47,1064.86h3.47a10.57,10.57,0,0,1,6.95,5.79h0a19.56,19.56,0,0,1,.62,5.8v23.16a18.87,18.87,0,0,1-.63,5.79.57.57,0,0,0-.27.58c-1.93,3.31-4.69,5.28-8.63,5.19-3.74-.08-6.36-2-8.19-5.19a.58.58,0,0,0-.28-.58,19.18,19.18,0,0,1-.63-5.79v-23.16a19.24,19.24,0,0,1,.63-5.8.68.68,0,0,0,.27-.61l.89-1.3C802.07,1066.64,804.21,1065.67,806.47,1064.86Z" transform="translate(-684.75 -1024.89)"/><path class="cls-17" d="M811.06,1212.71a10.88,10.88,0,0,1-5.72,0,9.54,9.54,0,0,1-6.45-8.89v-23.16c0-1.83,0-3.67,0-5.5a9.79,9.79,0,0,1,6.43-8.05,12.15,12.15,0,0,1,5.75,0,22.27,22.27,0,0,1,3.44,2l2.1,2.87.88,2.9c0,1.93,0,3.86,0,5.79v23.16A9.49,9.49,0,0,1,811.06,1212.71Z" transform="translate(-684.75 -1024.89)"/><path class="cls-18" d="M863.25,1186.46a11.14,11.14,0,0,1-3.86,6.06l-2,1a10.53,10.53,0,0,1-5.78.31l-.61-.11a.17.17,0,0,0-.22-.11,13.63,13.63,0,0,1-4.06-2.93c-5-5.06-10.12-10.07-15.13-15.15-2-2-4.31-3.85-5.73-6.43a12.49,12.49,0,0,1-.64-5.78,13.93,13.93,0,0,1,1.5-3.37,10,10,0,0,1,7.51-4.14,2.77,2.77,0,0,0,.82.25c2.7,0,4.7,1.36,6.5,3.18,1.28,1.3,2.6,2.55,3.91,3.82l.29.28c1.85,2,3.78,4,5.81,5.81,1.73,1.93,3.58,3.74,5.48,5.49l.29.28a26.68,26.68,0,0,0,1.87,2C862.16,1179.41,863.74,1182.49,863.25,1186.46Z" transform="translate(-684.75 -1024.89)"/><path class="cls-19" d="M757.52,1192.84a10.59,10.59,0,0,1-4.37-6.38,10.27,10.27,0,0,1,3.81-9.38c.86-.75,1.59-1.64,2.38-2.46,1.92-1.75,3.76-3.58,5.5-5.51l.29-.28c1.91-1.75,3.75-3.56,5.48-5.49.93-.89,1.92-1.73,2.78-2.69,2.36-2.65,5-4.72,8.76-4.86,4.65.52,7.73,2.94,9,7.51a12.9,12.9,0,0,1-.65,5.78,20,20,0,0,1-2.22,3q-9.48,9.43-18.92,18.9a10.73,10.73,0,0,1-4.6,2.85,12,12,0,0,1-5.46-.12l-1.78-.83Z" transform="translate(-684.75 -1024.89)"/><path class="cls-20" d="M791.18,1111.18a10.8,10.8,0,0,1-.86,5.8,14,14,0,0,1-2.37,3l-2.05,1.32-2.9.74h-2a11.36,11.36,0,0,1-4.67-1.82l-.05,0a.19.19,0,0,0-.19-.16q-9.83-9.82-19.65-19.64a10.62,10.62,0,0,1-3.37-6.52.07.07,0,0,0,0-.12.82.82,0,0,0,0-.76,9.46,9.46,0,0,1,6-8.53,10.23,10.23,0,0,1,5.8-.29c2.39.61,4,2.31,5.74,3.91h0c1.74,1.92,3.58,3.74,5.49,5.5l.61.61c1.75,1.91,3.57,3.75,5.49,5.49h0c1.15,1.19,2.26,2.41,3.46,3.54.63.59,1,1.5,2,1.66a.89.89,0,0,0,.61.9A11.34,11.34,0,0,1,791.18,1111.18Z" transform="translate(-684.75 -1024.89)"/><path class="cls-21" d="M825.23,1111.18a10.86,10.86,0,0,1,3.23-5.61c2-1.93,3.9-3.94,5.84-5.92h0c2-1.85,4-3.77,5.79-5.8a76.85,76.85,0,0,0,5.49-5.49c1.84-1.65,3.49-3.58,6-4.22a10.36,10.36,0,0,1,5.81.31,9.44,9.44,0,0,1,5.89,7.92c.16,3.42-1.34,6-3.73,8.39-6,5.91-11.94,11.91-17.9,17.87-4.08,4.07-8.45,4.5-13.23,1.33a14,14,0,0,1-2.38-3A10.78,10.78,0,0,1,825.23,1111.18Z" transform="translate(-684.75 -1024.89)"/><path class="cls-22" d="M845.84,1148.29a11.49,11.49,0,0,1-5.78-1.53l-1.1-.86a9.31,9.31,0,0,1-1.81-11.56,14.75,14.75,0,0,1,2.92-3.14,11,11,0,0,1,5.77-1.53H869l5.48.06a10.59,10.59,0,0,1,6.1,3.74l.58.87a11.66,11.66,0,0,1,1.17,5.8,9.73,9.73,0,0,1-7.58,8l-5.76.12H845.84Z" transform="translate(-684.75 -1024.89)"/><path class="cls-23" d="M776.34,1146.76a11.43,11.43,0,0,1-5.77,1.53H747.41l-5.76-.12-1.07-.35c-3.73-1.24-5.71-4-6.52-7.68a11.66,11.66,0,0,1,1.18-5.8l.58-.88a10.7,10.7,0,0,1,6.11-3.73l5.47-.06h23.16a11.27,11.27,0,0,1,5.78,1.53,15,15,0,0,1,2.92,3.14,9.3,9.3,0,0,1-1.82,11.56Z" transform="translate(-684.75 -1024.89)"/><text class="cls-24" transform="matrix(0.71, -0.7, 0.7, 0.71, 211.86, 15.17)">V 500</text></svg>